<?xml version="1.0" encoding="UTF-8" standalone="no"?>
<!DOCTYPE svg PUBLIC "-//W3C//DTD SVG 1.1//EN"
 "http://www.w3.org/Graphics/SVG/1.1/DTD/svg11.dtd">
<!-- Generated by graphviz version 2.28.0 (20110923.0955)
 -->
<!-- Title: test1 Pages: 1 -->
<svg width="460pt" height="342pt"
 viewBox="0.00 0.00 460.20 342.00" xmlns="http://www.w3.org/2000/svg" xmlns:xlink="http://www.w3.org/1999/xlink">
<g id="graph1" class="graph" transform="scale(1 1) rotate(0) translate(4 338)">
<title>test1</title>
<polygon fill="white" stroke="white" points="-4,5 -4,-338 457.198,-338 457.198,5 -4,5"/>
<!-- browser -->
<g id="node1" class="node"><title>browser</title>
<polygon fill="none" stroke="black" points="181.198,-333.5 29.1979,-333.5 29.1979,-214.5 181.198,-214.5 181.198,-333.5"/>
<text text-anchor="start" x="103.198" y="-314.3" font-family="Times,serif" font-size="14.00"> </text>
<text text-anchor="start" x="41.6979" y="-293.8" font-family="Times,serif" font-size="14.00"> &#160;</text>
<text text-anchor="start" x="49.6979" y="-293.8" font-family="Times,serif" font-size="14.00">Browser</text>
<text text-anchor="start" x="41.6979" y="-279.8" font-family="Times,serif" font-size="14.00"> &#160;&#160;&#160;&#160;&#160;&#45; Firefox</text>
<text text-anchor="start" x="41.6979" y="-265.8" font-family="Times,serif" font-size="14.00"> &#160;&#160;&#160;&#160;&#160;&#45; Chrome (soon?)</text>
<text text-anchor="start" x="103.198" y="-245.8" font-family="Times,serif" font-size="14.00"> </text>
<text text-anchor="start" x="103.198" y="-225.8" font-family="Times,serif" font-size="14.00"> </text>
</g>
<!-- scrape -->
<g id="node2" class="node"><title>scrape</title>
<polygon fill="none" stroke="black" points="358.448,-125.5 211.948,-125.5 211.948,-0.5 358.448,-0.5 358.448,-125.5"/>
<text text-anchor="start" x="283.698" y="-106.3" font-family="Times,serif" font-size="14.00"> </text>
<text text-anchor="start" x="283.698" y="-85.8" font-family="Times,serif" font-size="14.00"> </text>
<text text-anchor="start" x="259.698" y="-65.8" font-family="Times,serif" font-size="14.00">[S]crape</text>
<text text-anchor="start" x="224.698" y="-51.8" font-family="Times,serif" font-size="14.00">command procressor</text>
<text text-anchor="start" x="283.698" y="-31.8" font-family="Times,serif" font-size="14.00"> </text>
<text text-anchor="start" x="283.698" y="-11.8" font-family="Times,serif" font-size="14.00"> </text>
</g>
<!-- browser&#45;&gt;scrape -->
<g id="edge3" class="edge"><title>browser&#45;&gt;scrape</title>
<path fill="none" stroke="#008b00" stroke-width="2.2" d="M29.0795,-223.793C21.0818,-215.492 14.0967,-206.209 9.19787,-196 -0.800379,-175.164 -4.68423,-162.477 9.19787,-144 31.6305,-114.142 122.225,-91.8453 193.582,-78.4783"/>
<polygon fill="#008b00" stroke="#008b00" points="195.133,-84.5999 211.721,-75.1914 192.886,-72.2018 195.133,-84.5999"/>
<text text-anchor="start" x="13.1979" y="-180.3" font-family="Times,serif" font-size="14.00">Use browser interactively with </text>
<text text-anchor="start" x="194.198" y="-180.3" font-family="Times,serif" font-size="14.00">[S]crape</text>
<text text-anchor="start" x="246.198" y="-180.3" font-family="Times,serif" font-size="14.00">;</text>
<text text-anchor="start" x="13.1979" y="-166.3" font-family="Times,serif" font-size="14.00">[S]crape</text>
<text text-anchor="start" x="65.1979" y="-166.3" font-family="Times,serif" font-size="14.00"> starts and controls browser;</text>
<text text-anchor="start" x="28.6979" y="-152.3" font-family="Times,serif" font-size="14.00">[S]crape</text>
<text text-anchor="start" x="80.6979" y="-152.3" font-family="Times,serif" font-size="14.00"> scrapes from the browser;</text>
</g>
<!-- scrape&#45;&gt;browser -->
<g id="edge9" class="edge"><title>scrape&#45;&gt;browser</title>
<path fill="none" stroke="blue" stroke-width="2.2" d="M282.262,-125.573C278.458,-149.57 270.688,-176.042 255.198,-196 240.324,-215.165 219.36,-229.991 197.808,-241.279"/>
<polygon fill="blue" stroke="blue" points="194.783,-235.743 181.303,-249.234 200.254,-247.093 194.783,-235.743"/>
</g>
<!-- files -->
<g id="node3" class="node"><title>files</title>
<polygon fill="none" stroke="black" points="451.448,-330.5 252.948,-330.5 248.948,-326.5 248.948,-217.5 447.448,-217.5 451.448,-221.5 451.448,-330.5"/>
<polyline fill="none" stroke="black" points="447.448,-326.5 248.948,-326.5 "/>
<polyline fill="none" stroke="black" points="447.448,-326.5 447.448,-217.5 "/>
<polyline fill="none" stroke="black" points="447.448,-326.5 451.448,-330.5 "/>
<text text-anchor="start" x="348.698" y="-311.3" font-family="Times,serif" font-size="14.00"> </text>
<text text-anchor="start" x="261.698" y="-290.8" font-family="Times,serif" font-size="14.00"> &#160;</text>
<text text-anchor="start" x="269.698" y="-290.8" font-family="Times,serif" font-size="14.00">Files</text>
<text text-anchor="start" x="261.698" y="-276.8" font-family="Times,serif" font-size="14.00"> &#160;&#160;&#160;&#45; run scripts (*.scrape)</text>
<text text-anchor="start" x="261.698" y="-262.8" font-family="Times,serif" font-size="14.00"> &#160;&#160;&#160;&#45; output (csv tables)</text>
<text text-anchor="start" x="261.698" y="-248.8" font-family="Times,serif" font-size="14.00"> &#160;&#160;&#160;&#45; plugins (./_scrape/plugins)</text>
<text text-anchor="start" x="348.698" y="-228.8" font-family="Times,serif" font-size="14.00"> </text>
</g>
<!-- scrape&#45;&gt;files -->
<g id="edge7" class="edge"><title>scrape&#45;&gt;files</title>
<path fill="none" stroke="blue" stroke-width="2.2" d="M358.677,-109.395C369.41,-119.407 378.938,-130.975 385.198,-144 393.621,-161.525 392.78,-181.397 387.839,-200.203"/>
<polygon fill="blue" stroke="blue" points="381.811,-198.366 382.155,-217.433 393.776,-202.313 381.811,-198.366"/>
</g>
<!-- files&#45;&gt;scrape -->
<g id="edge5" class="edge"><title>files&#45;&gt;scrape</title>
<path fill="none" stroke="#008b00" stroke-width="2.2" d="M312.525,-217.133C308.945,-210.217 305.717,-203.083 303.198,-196 297.329,-179.504 293.358,-161.22 290.674,-143.65"/>
<polygon fill="#008b00" stroke="#008b00" points="296.907,-142.73 288.318,-125.703 284.415,-144.369 296.907,-142.73"/>
<text text-anchor="start" x="307.198" y="-173.3" font-family="Times,serif" font-size="14.00">&#45; Batch;</text>
<text text-anchor="start" x="307.198" y="-159.3" font-family="Times,serif" font-size="14.00">&#45; Interactive;</text>
</g>
</g>
</svg>
